<svg width="200" height="40" viewBox="0 0 200 40" fill="none" xmlns="http://www.w3.org/2000/svg" role="img" aria-label="Subrosa">
  <rect width="40" height="40" rx="9" fill="#FF5500"></rect>
  <g fill="#FFFFFF">
    <path d="M20 20C13.4 17 13.4 9.3 20 6.4C26.6 9.3 26.6 17 20 20Z"></path>
    <path d="M20 20C13.4 17 13.4 9.3 20 6.4C26.6 9.3 26.6 17 20 20Z" transform="rotate(72 20 20)"></path>
    <path d="M20 20C13.4 17 13.4 9.3 20 6.4C26.6 9.3 26.6 17 20 20Z" transform="rotate(144 20 20)"></path>
    <path d="M20 20C13.4 17 13.4 9.3 20 6.4C26.6 9.3 26.6 17 20 20Z" transform="rotate(216 20 20)"></path>
    <path d="M20 20C13.4 17 13.4 9.3 20 6.4C26.6 9.3 26.6 17 20 20Z" transform="rotate(288 20 20)"></path>
  </g>
  <g fill="#FF5500">
    <path d="M20 20C17.6 18.7 17.6 14.4 20 12.7C22.4 14.4 22.4 18.7 20 20Z" transform="rotate(36 20 20)"></path>
    <path d="M20 20C17.6 18.7 17.6 14.4 20 12.7C22.4 14.4 22.4 18.7 20 20Z" transform="rotate(108 20 20)"></path>
    <path d="M20 20C17.6 18.7 17.6 14.4 20 12.7C22.4 14.4 22.4 18.7 20 20Z" transform="rotate(180 20 20)"></path>
    <path d="M20 20C17.6 18.7 17.6 14.4 20 12.7C22.4 14.4 22.4 18.7 20 20Z" transform="rotate(252 20 20)"></path>
    <path d="M20 20C17.6 18.7 17.6 14.4 20 12.7C22.4 14.4 22.4 18.7 20 20Z" transform="rotate(324 20 20)"></path>
  </g>
  <circle cx="20" cy="20" r="3" fill="#FFFFFF"></circle>
  <circle cx="20" cy="20" r="1.5" fill="#FF5500"></circle>
  <text x="54" y="28" font-family="Space Grotesk, sans-serif" font-size="25" font-weight="600" letter-spacing="-0.5" fill="#FFFFFF">Subrosa</text>
</svg>
